<svg xmlns="http://www.w3.org/2000/svg" width="630.847" height="368.816" viewBox="0 0 630.847 368.816">
  <g id="组_214" data-name="组 214" transform="translate(-105.367 -162.412)" opacity="0.8">
    <g id="组_197" data-name="组 197" transform="translate(557.698 358.71)">
      <g id="组_196" data-name="组 196" transform="translate(0 0)">
        <path id="路径_605" data-name="路径 605" d="M974.962,553.062H960.119a6.7,6.7,0,0,1,2.094-4.662,30.53,30.53,0,0,1,5.384-3.806,22.959,22.959,0,0,0,2.95-1.937,3.091,3.091,0,0,0,1.375-2.592c0-2.161-2.14-2.815-3.943-2.815-3.13,0-4.482,1.4-4.662,4.46h-2.9a8.265,8.265,0,0,1,1.147-4.054,7.438,7.438,0,0,1,6.375-2.839c3.266,0,6.869,1.488,6.869,5.271a4.921,4.921,0,0,1-1.036,3.107,14.292,14.292,0,0,1-3.693,2.839,29.7,29.7,0,0,0-4.866,3.22,12.154,12.154,0,0,0-1.194,1.418h10.947Z" transform="translate(-959.939 -533.962)" fill="#fff"/>
        <path id="路径_606" data-name="路径 606" d="M1007.2,544.188c0,4.886-1.893,9.368-7.455,9.368-5.585,0-7.455-4.482-7.455-9.368s1.869-9.371,7.455-9.371C1005.309,534.818,1007.2,539.3,1007.2,544.188Zm-12.027,0c0,3.017.789,6.981,4.572,6.981s4.572-3.964,4.572-6.981-.789-6.983-4.572-6.983C995.94,537.206,995.175,541.169,995.175,544.188Z" transform="translate(-975.08 -533.962)" fill="#fff"/>
        <path id="路径_607" data-name="路径 607" d="M1039.135,553.062h-14.842a6.7,6.7,0,0,1,2.094-4.662,30.528,30.528,0,0,1,5.384-3.806,22.945,22.945,0,0,0,2.95-1.937,3.092,3.092,0,0,0,1.374-2.592c0-2.161-2.14-2.815-3.942-2.815-3.13,0-4.482,1.4-4.663,4.46h-2.9a8.258,8.258,0,0,1,1.148-4.054,7.437,7.437,0,0,1,6.374-2.839c3.265,0,6.869,1.488,6.869,5.271a4.918,4.918,0,0,1-1.037,3.107,14.272,14.272,0,0,1-3.693,2.839,29.645,29.645,0,0,0-4.866,3.22,12.154,12.154,0,0,0-1.194,1.418h10.946Z" transform="translate(-990.139 -533.962)" fill="#fff"/>
        <path id="路径_608" data-name="路径 608" d="M1062.359,542.634h1.488c1.71,0,3.806-.743,3.806-2.77,0-2.163-2.208-2.614-3.942-2.614a3.963,3.963,0,0,0-3.559,1.464,3.606,3.606,0,0,0-.518,1.87h-2.927a5.992,5.992,0,0,1,1.937-4.121,8.227,8.227,0,0,1,5.294-1.645c2.971,0,6.6,1.194,6.6,4.729a3.979,3.979,0,0,1-1.037,2.7,4.593,4.593,0,0,1-2.23,1.239,4.7,4.7,0,0,1,3,1.96,4.249,4.249,0,0,1,.652,2.388,5.167,5.167,0,0,1-1.779,4.007,8.378,8.378,0,0,1-5.63,1.712c-2.321,0-4.528-.518-6.014-2.432a7,7,0,0,1-1.33-3.919h2.929c.224,2.839,1.666,3.919,4.436,3.919,2.117,0,4.5-.743,4.5-3.266,0-2.3-1.937-3.175-3.94-3.175h-1.735Z" transform="translate(-1005.137 -533.962)" fill="#fff"/>
        <path id="路径_609" data-name="路径 609" d="M1102.292,541.241h4.953v2.1h-4.953v3.716h7.7v2.117h-7.7v4.843h-2.455V549.17H1089.43v-2.117h3.807v-5.812h6.6v-3.107h-5.586a23.957,23.957,0,0,1-3.154,4.054,8.274,8.274,0,0,0-2.163-1.238,19.3,19.3,0,0,0,5.113-7.748l2.32.743c.158.046.338.113.338.338,0,.27-.271.294-.631.316-.18.428-.405.923-.632,1.4h13.718v2.14h-6.869Zm-6.6,2.1v3.716h4.144v-3.716Z" transform="translate(-1020.559 -533.201)" fill="#fff"/>
        <path id="路径_610" data-name="路径 610" d="M1151.433,538.79v1.869H1147.2v3.448h-8.22v-3.448h-3.063V538.79h3.063v-1.576h-3.424v4.82c0,3.874-.382,8.716-2.545,12.05a5.869,5.869,0,0,0-2.117-.991c2.006-2.906,2.411-7.3,2.411-10.744v-7.071h7.545v-1.735l2.545.136c.157,0,.472.067.472.292,0,.2-.248.294-.5.384v.923h8.806v1.936h-4.459c.044.292-.293.361-.519.382v1.194Zm.586,13.221a10.327,10.327,0,0,0-1.217,2.163,26.533,26.533,0,0,1-7.612-2.364,22.062,22.062,0,0,1-6.328,2.319,4.644,4.644,0,0,0-1.374-1.981,20.348,20.348,0,0,0,5.495-1.645,14.683,14.683,0,0,1-3.063-2.725l1.352-.787h-2.793V545.1h12.208l.992,1.148a17.267,17.267,0,0,1-4.3,4.19A20.457,20.457,0,0,0,1152.019,552.01Zm-5.923-5.021h-6.1a14.685,14.685,0,0,0,3.13,2.365A13.13,13.13,0,0,0,1146.1,546.989Zm-1.171-9.776h-3.177c.114.315-.271.382-.495.405v1.171h3.671Zm-3.671,3.445v1.689h3.671v-1.689Z" transform="translate(-1040.303 -533.361)" fill="#fff"/>
        <path id="路径_611" data-name="路径 611" d="M969.788,599.683a11.965,11.965,0,0,1-5.134,3.175,8.637,8.637,0,0,0-1.735-1.891,10.087,10.087,0,0,0,5.7-3.537,9.255,9.255,0,0,0,1.352-5.248h-8.783v-2.14h18.963v2.14h-7.815C972.266,594.907,971.725,597.656,969.788,599.683Zm7.117-15.631v2.14H964.179v-2.14Zm1.488.5a21.671,21.671,0,0,1,2.3,2.208,10.2,10.2,0,0,0-1.127,1.284,15.325,15.325,0,0,0-2.344-2.32Zm3.559-.021a8.218,8.218,0,0,0-1.15,1.192,14.11,14.11,0,0,0-2.319-2.319l1.058-1.171A17.8,17.8,0,0,1,981.951,584.525Z" transform="translate(-960.441 -556.273)" fill="#fff"/>
        <path id="路径_612" data-name="路径 612" d="M1015.961,582.937l2.432.157c.2.023.384.046.384.248s-.2.317-.384.384v4.054h4.347v2.275h-4.347v.4c0,.766-.044,1.645-.111,2.434a10.6,10.6,0,0,1-1.712,5.292,12.16,12.16,0,0,1-5.946,4.662,7.034,7.034,0,0,0-1.779-1.869,10.623,10.623,0,0,0,6.037-4.616,13.415,13.415,0,0,0,1.08-6.307h-5.608v5.676h-2.388v-5.676h-4.482V587.78h4.482v-4.685l2.274.136c.316.021.451.09.451.269,0,.113-.044.181-.338.361v3.919h5.608Zm5.472,4.032a23.02,23.02,0,0,0-2.3-2.411l1.125-1.013a20.131,20.131,0,0,1,2.253,2.342A4.507,4.507,0,0,0,1021.433,586.97Zm.608-4.956a19.77,19.77,0,0,1,2.3,2.274,5.668,5.668,0,0,0-1.148,1.059,15.018,15.018,0,0,0-2.23-2.388Z" transform="translate(-980.346 -556.172)" fill="#fff"/>
        <path id="路径_613" data-name="路径 613" d="M1056.956,603.049h-2.5V591.788a42.011,42.011,0,0,1-7.68,3.806,8.764,8.764,0,0,0-1.756-2.094,31.249,31.249,0,0,0,15.944-10.722l2.163,1.6a.488.488,0,0,1,.2.36c0,.158-.226.2-.361.2a1.377,1.377,0,0,1-.428-.069,36.88,36.88,0,0,1-5.585,5.181Z" transform="translate(-999.893 -556.532)" fill="#fff"/>
        <path id="路径_614" data-name="路径 614" d="M1098.1,589.028a18.936,18.936,0,0,0-1.465,2.027,24.886,24.886,0,0,0-6.215-4.121l1.442-2.027A28.62,28.62,0,0,1,1098.1,589.028Zm9.595-.271a14.227,14.227,0,0,0,1.508,2.073c-3.986,6.262-9.571,9.933-16.485,12.411-.023.338-.09.495-.317.495a.453.453,0,0,1-.358-.271l-1.441-2.41A26.533,26.533,0,0,0,1107.7,588.757Z" transform="translate(-1021.26 -557.533)" fill="#fff"/>
        <path id="路径_615" data-name="路径 615" d="M1131.824,587.147c.451.067.654.113.654.338,0,.2-.226.27-.405.292a20.328,20.328,0,0,1-1.263,5.564,7.209,7.209,0,0,0-1.959-.879,17.586,17.586,0,0,0,1.33-5.586Zm3.9-.991a19.159,19.159,0,0,1,2.253,2.589,5.132,5.132,0,0,0-1.441,1.261h5.541v-1.238h-4.033v-1.442h4.033V586.11H1137v-1.6h5.069v-1.689l2.318.158c.18.023.5.067.5.271,0,.181-.157.292-.5.4v.856h5.337v1.6h-5.337v1.217h4.257v1.442h-4.257v1.238h5.812v1.6h-13.762v-1.576c-.428-.7-.947-1.4-1.441-2.05v15.541h-2.342V582.935l2.455.157c.089,0,.472.067.472.292s-.271.361-.586.451v2.839Zm4.5,13.625v3.739h-2.318V592.778h10.923V600.8c0,2.274-.743,2.635-3.853,2.725a5.491,5.491,0,0,0-.877-2.117,9.436,9.436,0,0,0,1.373.111c.992,0,1.082-.178,1.082-.967v-.766Zm6.33-5.474h-6.33v1.239h6.33Zm0,2.748h-6.33v1.217h6.33Z" transform="translate(-1039.343 -556.552)" fill="#fff"/>
        <path id="路径_616" data-name="路径 616" d="M1178.637,597.3h3.537v1.916h-3.537v4.324H1176.5v-4.324h-3.672V597.3h3.672v-1.869h-3.829v-1.914h2.117a10.358,10.358,0,0,0-1.014-2.432l1.554-.451h-3.153v-1.914h4.324v-1.8h-3.2v-1.846h3.2v-2.207l1.89.111c.5.023.766.113.766.338,0,.2-.2.271-.518.384v1.374h3.333v1.846h-3.333v1.8h3.986v1.914h-2.971l1.667.36c.2.045.382.091.382.292,0,.226-.269.271-.586.293a16.55,16.55,0,0,1-.877,1.937h2.117v1.914h-3.717Zm-1.914-4.1-1.307.315h2.794a13.172,13.172,0,0,0,1.1-2.883h-3.6A11.841,11.841,0,0,1,1176.723,593.2Zm16.419,8.85a8.81,8.81,0,0,0-1.779,1.51,20.5,20.5,0,0,1-2.365-2.276,12.534,12.534,0,0,1-2.05,2.207,5.709,5.709,0,0,0-1.441-1.194v1.217h-2.229V583.5h8.693v2.411c0,1.057,0,2.161-.067,3.017a1.778,1.778,0,0,1-.81,1.509,6.405,6.405,0,0,1-3.2.608,6.446,6.446,0,0,0-.856-2.3,6.835,6.835,0,0,0,1.351.136c.384,0,1.194-.023,1.284-.495a26.8,26.8,0,0,0,.046-2.839h-4.213v6.374h5.856l1.059,1.1a20.869,20.869,0,0,1-2.253,6.509A15.14,15.14,0,0,0,1193.142,602.054Zm-3.175-8.107h-4.46v7.95a15.131,15.131,0,0,0,2.164-2.319,14.638,14.638,0,0,1-1.914-4.122l1.666-.991a12.992,12.992,0,0,0,1.4,3.2A16.452,16.452,0,0,0,1189.967,593.946Z" transform="translate(-1059.731 -556.573)" fill="#fff"/>
        <path id="路径_617" data-name="路径 617" d="M1235.634,595.756v2H1226.8v3.154a2.872,2.872,0,0,1-.473,1.666,2.692,2.692,0,0,1-1.938.744c-.742.067-1.485.088-2.251.088h-.361a8.665,8.665,0,0,0-.809-2.364c1.1.09,1.666.113,2.387.113,1.035,0,1.1-.224,1.1-.923V597.76h-9.055v-2h9.055v-1.8l1.148.18a8.959,8.959,0,0,0,2.073-1.825h-8.29v-1.981h11.194l.9,1.374a27.333,27.333,0,0,1-4.686,3.827v.227Zm-7.411-8.963a23.122,23.122,0,0,0,2.883-4.032l2.32.812c.135.044.292.134.292.292,0,.315-.517.338-.744.338-.742,1.06-1.26,1.757-1.913,2.592h4.257v5.563h-2.277v-3.672h-15.067v3.672h-2.231v-5.562h3.605a19.957,19.957,0,0,0-1.983-2.906l1.892-1.037a14.518,14.518,0,0,1,2.184,3.154,12.971,12.971,0,0,0-1.441.789Zm-3.579-4.437a17.334,17.334,0,0,1,2.207,3.311,10.359,10.359,0,0,0-2,1.08,14.466,14.466,0,0,0-2.231-3.424Z" transform="translate(-1080.076 -556.333)" fill="#fff"/>
        <path id="路径_618" data-name="路径 618" d="M1265.949,595.432a8.234,8.234,0,0,0-1.6,1.464,28.052,28.052,0,0,1-1.4-3.017V603.5h-2.027v-8.806a25.721,25.721,0,0,1-2.522,5.405,7.646,7.646,0,0,0-1.757-1.53,26.273,26.273,0,0,0,4.054-7.636h-3.582v-1.915h3.806v-2.522a26.874,26.874,0,0,1-2.95.7,6.59,6.59,0,0,0-1.217-1.983,20.306,20.306,0,0,0,8.063-2.342l1.623,1.643a.443.443,0,0,1,.157.317.261.261,0,0,1-.292.248,2.987,2.987,0,0,1-.654-.248c-.9.382-1.8.72-2.7,1.035v3.153h3.447v1.915h-3.357A19.5,19.5,0,0,0,1265.949,595.432Zm11.6-1.125.247,2.027-2.408.472V603.5h-2.164v-6.284l-7.859,1.531-.294-2,8.153-1.6V582.866l2.322.157c.224.023.381.045.381.27,0,.248-.337.359-.539.428v11.013Zm-6.194-1.4a20.684,20.684,0,0,0-1.486,1.668,20.026,20.026,0,0,0-3.267-2.929l1.465-1.6A19.98,19.98,0,0,1,1271.353,592.91Zm.722-4.886a8.118,8.118,0,0,0-1.6,1.575,26.016,26.016,0,0,0-3.471-3.2l1.532-1.488A25.75,25.75,0,0,1,1272.075,588.023Z" transform="translate(-1099.483 -556.573)" fill="#fff"/>
        <path id="路径_619" data-name="路径 619" d="M979.4,634.819v2.073h-4.82l.9.472c.247.136.338.2.338.361,0,.225-.224.271-.382.271a1.059,1.059,0,0,1-.271-.023c-.2.384-.427.766-.652,1.127a19.65,19.65,0,0,0,5.18,3.92,6.534,6.534,0,0,0-1.555,1.779,20.981,20.981,0,0,1-4.82-3.986,15.167,15.167,0,0,1-2.929,2.837l.879.09c.315.023.609.091.609.315,0,.25-.384.361-.586.407v1.194h9.053V647.7h-9.053V653h-2.434V647.7h-9.077v-2.048h9.077v-2.14l1.284.113a5.428,5.428,0,0,0-1.689-1.442,11.628,11.628,0,0,0,4.685-5.293H966.4l1.194.631c.136.067.293.2.293.359,0,.293-.451.293-.655.293-.225.382-.472.787-.72,1.171a11.66,11.66,0,0,0,2.68,1.622,5.64,5.64,0,0,0-1.328,1.937,12.924,12.924,0,0,1-2.5-1.779,24.086,24.086,0,0,1-3.489,3.762,11.272,11.272,0,0,0-1.983-1.42,17,17,0,0,0,5.451-6.576h-4.572v-2.073h8.084V632.23l2.455.113c.181,0,.585.067.585.338,0,.157-.2.292-.607.472v1.666Z" transform="translate(-959.779 -579.803)" fill="#fff"/>
        <path id="路径_620" data-name="路径 620" d="M1022.665,651.072a5.3,5.3,0,0,0-1.576,1.733,21.15,21.15,0,0,1-7.344-4.706v4.954h-2.161V648.21a27.542,27.542,0,0,1-7.094,4.685,6.564,6.564,0,0,0-1.712-1.643,26.858,26.858,0,0,0,7.747-4.37h-8.062v-1.824h9.121v-1.1h-6.532v-1.712h6.532v-1.081h-8v-1.8h5.226a10.841,10.841,0,0,0-.9-1.668l1.24-.382h-6.689v-1.825h3.76a15.934,15.934,0,0,0-1.305-1.913l1.846-1.1a16.806,16.806,0,0,1,1.622,2.545,4.871,4.871,0,0,0-1.1.472h2.162V632.4l2.14.113c.225.021.451.044.451.292,0,.181-.113.271-.451.384v2.3h2.027v-3.062l2.141.09c.157,0,.472.044.472.269s-.292.36-.472.428v2.274h2.319a7.344,7.344,0,0,0-1.352-.472,11.922,11.922,0,0,0,1.51-2.522l2.252.877a.289.289,0,0,1,.2.25c0,.134-.113.268-.338.268a2.059,2.059,0,0,1-.361-.021c-.361.563-.743,1.1-1.127,1.62h4.009v1.825h-4.91a.247.247,0,0,1,.135.224c0,.113-.114.361-.653.338-.224.5-.474,1.013-.721,1.487h4.8v1.8h-7.771v1.081h6.353v1.712h-6.353v1.1h9.146v1.824h-7.929A21.959,21.959,0,0,0,1022.665,651.072Zm-11.779-12.029a9.785,9.785,0,0,0-1.351.317h4.775a15.421,15.421,0,0,0,.967-2.05h-5.225A10.184,10.184,0,0,1,1010.886,639.043Z" transform="translate(-979.866 -579.883)" fill="#fff"/>
        <path id="路径_621" data-name="路径 621" d="M1064.515,650.126a2.027,2.027,0,1,1-2.027-2.027A2.048,2.048,0,0,1,1064.515,650.126Z" transform="translate(-1007.159 -587.271)" fill="#fff"/>
        <path id="路径_622" data-name="路径 622" d="M1090.964,637.67c.18.045.361.112.361.338,0,.157-.136.247-.428.382v14.482h-2.208v-11.96a11.065,11.065,0,0,1-1.374,1.825,4.419,4.419,0,0,0-1.487-1.735,20.818,20.818,0,0,0,4.438-8.987l2.184.586c.18.045.428.136.428.317,0,.224-.2.292-.586.359a35.417,35.417,0,0,1-1.733,4.28Zm16.689,3.152a5.074,5.074,0,0,0-1.307,2.006,21.411,21.411,0,0,1-5.472-2.478,16.939,16.939,0,0,1-5.384,2.455,5.116,5.116,0,0,0-1.215-1.757,16.164,16.164,0,0,0,5-1.936,14.145,14.145,0,0,1-1.8-1.87,18.583,18.583,0,0,1-1.666,2.341,4.249,4.249,0,0,0-1.668-1.059v10.969h-1.914V636.3l1.87.134c.292.023.541.046.541.294,0,.2-.317.338-.5.382v1.261a15.686,15.686,0,0,0,3.311-6.329l2.163.472c.114.023.338.113.338.294,0,.271-.405.314-.608.338a5.23,5.23,0,0,1-.27.789h7.906v1.96h-1.913a13.728,13.728,0,0,1-2.615,3.2A16.3,16.3,0,0,0,1107.653,640.822ZM1095.76,652.76a3.385,3.385,0,0,0-1.531-1.825,23.856,23.856,0,0,0,11.983-5.044l1.465,1.282a.542.542,0,0,1,.224.406c0,.157-.135.225-.292.225a.83.83,0,0,1-.407-.09A26.611,26.611,0,0,1,1095.76,652.76Zm.248-6.869a4.32,4.32,0,0,0-1.215-1.622,16.135,16.135,0,0,0,6.125-2.883l1.263,1.125a.427.427,0,0,1,.157.338c0,.159-.157.2-.293.2a1.182,1.182,0,0,1-.292-.045A22.951,22.951,0,0,1,1096.008,645.891Zm.317,3.288a4.061,4.061,0,0,0-1.511-1.645,22.725,22.725,0,0,0,8.853-4.257l1.509,1.351a.414.414,0,0,1,.136.34c0,.179-.113.225-.293.225-.045,0-.226-.023-.361-.046A33.554,33.554,0,0,1,1096.325,649.179Zm6.372-13.288h-4.031a12.569,12.569,0,0,0,2.14,2.094A8.78,8.78,0,0,0,1102.7,635.891Z" transform="translate(-1019.097 -579.703)" fill="#fff"/>
        <path id="路径_623" data-name="路径 623" d="M1148.695,634.568l.946,1.4a50.735,50.735,0,0,1-7.883,5.63v9.821c0,2.476-1.8,2.636-3.806,2.636-.338,0-.7,0-1.037-.023a7.074,7.074,0,0,0-.833-2.636,17.408,17.408,0,0,0,2.208.181c.629,0,1.013-.067,1.013-.789V639.276l1.576.158a19.112,19.112,0,0,0,3.716-2.568h-14.211v-2.3Z" transform="translate(-1040.064 -580.904)" fill="#fff"/>
        <path id="路径_624" data-name="路径 624" d="M1177.5,635.283V632.49l2.186.112c.181,0,.519.023.519.293,0,.181-.2.271-.541.405v1.983h4.347V637.4h-4.347v2.161h4.977v2.117h-4.977v1.668h4.167v6.305c0,1.825-1.487,1.939-2.906,1.96a4.824,4.824,0,0,0-1.014-2.3,6.028,6.028,0,0,0,1.127.136c.653,0,.653-.361.653-.9v-3.061h-2.027v7.589H1177.5v-7.589h-1.891v6.305h-2.253v-8.446h4.144v-1.668h-5.338v-2.117h5.338V637.4h-2.747c-.247.518-.494,1.013-.789,1.554a7.432,7.432,0,0,0-2.05-.744,15.533,15.533,0,0,0,2.208-5l2.072.451c.18.044.428.135.428.338,0,.248-.428.315-.632.338-.09.315-.2.632-.315.947Zm10.271-.181c.2.023.542.067.542.314,0,.158-.2.248-.542.384v12.41h-2.3V634.922Zm4.28-2.589c.248.021.563.067.563.314,0,.181-.248.315-.563.428v16.733c0,2.682-1.15,3.11-3.919,3.11h-.405a6.876,6.876,0,0,0-.9-2.365,13.619,13.619,0,0,0,1.712.135c1.06,0,1.218-.248,1.218-1.284V632.4Z" transform="translate(-1059.609 -579.883)" fill="#fff"/>
        <path id="路径_625" data-name="路径 625" d="M1219.892,638.026c.114.023.428.113.428.315,0,.224-.247.338-.631.405v14.122h-2.365V641.247c-.45.585-.945,1.17-1.442,1.712a6.544,6.544,0,0,0-2-1.51,22.456,22.456,0,0,0,5.743-9.345l2.455.719c.157.046.316.113.316.294,0,.248-.227.292-.655.292a32.406,32.406,0,0,1-2.207,4.551Zm2.3,4.438a6.656,6.656,0,0,0-2.14-1.284,20.4,20.4,0,0,0,5.293-9.055l2.5.7a.384.384,0,0,1,.293.338c0,.2-.247.271-.675.294q-.44,1.149-.946,2.3h8.582v2.184h-6.375v2.927h5.652v2.117h-5.652v2.772h6.148v2.184h-6.148v4.932h-2.432V637.936h-.879A26.628,26.628,0,0,1,1222.189,642.464Z" transform="translate(-1079.356 -579.744)" fill="#fff"/>
        <path id="路径_626" data-name="路径 626" d="M1276.79,633.589v5.25h-15.407v3.783c0,3.491-.563,7.793-2.408,10.81a6.2,6.2,0,0,0-2.073-1.034c2.117-3.334,2.207-6.578,2.207-10.384v-8.425Zm-.181,13.538a.418.418,0,0,1,.2.315.254.254,0,0,1-.271.247,2.108,2.108,0,0,1-.36-.044,23.755,23.755,0,0,1-2.3,1.914,11.923,11.923,0,0,0,4.234,2.14,5.084,5.084,0,0,0-1.4,1.914,14.632,14.632,0,0,1-7.883-7.207h-2.476v3.965c1.328-.227,2.656-.5,3.986-.835a8.33,8.33,0,0,0-.34,2.1c-2.522.586-5.044,1.125-7.612,1.509-.09.224-.181.428-.449.428-.226,0-.293-.136-.338-.338l-.518-2.05c1.013-.113,2.094-.27,3.04-.428V646.4h-2.568v-1.96h3.334v-1.98h-2.545v-1.779h2.545V639.2l2.161.09c.181,0,.676.046.676.315,0,.159-.2.249-.653.34v.743h3.829V639.2l2.185.113c.18,0,.676.044.676.292,0,.2-.248.317-.7.407v.676h3.762v1.779h-3.762v1.98h4.6v1.96h-1.893Zm-15.226-10.09h13.13v-1.689h-13.13Zm5.7,5.428v1.98h3.829v-1.98Zm4.01,3.94a9.578,9.578,0,0,0,1.352,1.825,19.014,19.014,0,0,0,1.96-1.825Z" transform="translate(-1099.603 -580.443)" fill="#fff"/>
      </g>
    </g>
    <g id="_グループ_" data-name="①&lt;グループ&gt;" transform="translate(105.367 162.412)">
      <g id="_下_列_グループ_" data-name="①下２列&lt;グループ&gt;" transform="translate(0.403 195.64)">
        <g id="组_207" data-name="组 207">
          <path id="路径_696" data-name="路径 696" d="M106.129,534.457h13.758c27.515,0,39.6,16.491,39.6,36.246s-12.083,36.511-39.6,36.511H106.129Zm15.082,60.586c17.725,0,26.1-10.582,26.1-24.34s-8.378-24.164-26.1-24.164h-3v48.5Z" transform="translate(-106.129 -533.133)" fill="#fff"/>
          <path id="路径_697" data-name="路径 697" d="M216.9,569.7a37.616,37.616,0,0,1,37.746-37.745c22.134,0,39.6,19.226,37.392,40.921H228.8c1.059,12.7,11.73,23.016,25.753,23.016a24.668,24.668,0,0,0,22.929-15.168h13.14A37.694,37.694,0,0,1,216.9,569.7Zm62.35-7.408c-2.47-10.583-12.523-19.049-24.692-19.049a25.407,25.407,0,0,0-24.693,19.049Z" transform="translate(-158.257 -531.957)" fill="#fff"/>
          <path id="路径_698" data-name="路径 698" d="M370.812,569.615a37.428,37.428,0,0,1,37.746-37.658,37.053,37.053,0,0,1,36.158,27.692H430.87a23.244,23.244,0,0,0-22.312-15.609,25.308,25.308,0,0,0-25.84,25.751c0,14.2,10.671,25.751,25.753,25.751a24.117,24.117,0,0,0,23.282-16.932H403.8V567.939H445.95a37.592,37.592,0,1,1-75.138,1.676Z" transform="translate(-230.687 -531.957)" fill="#fff"/>
          <path id="路径_699" data-name="路径 699" d="M562.571,607.292,554.1,589.566a48.642,48.642,0,0,1-7.5.617h-5.467v17.2H529.059V534.624h16.052c22.84,0,31.218,13.316,31.218,27.78,0,9.171-3.528,17.9-11.464,23.018l12.169,21.871Zm-15.609-28.839c11.464,0,17.55-6.526,17.55-16.05,0-9.877-6.261-15.963-17.55-15.963h-5.821v32.013Z" transform="translate(-305.157 -533.212)" fill="#fff"/>
          <path id="路径_700" data-name="路径 700" d="M635.5,569.7a37.615,37.615,0,0,1,37.746-37.745c22.135,0,39.6,19.226,37.392,40.921H647.4c1.059,12.7,11.73,23.016,25.753,23.016a24.669,24.669,0,0,0,22.929-15.168h13.141A37.694,37.694,0,0,1,635.5,569.7Zm62.35-7.408c-2.47-10.583-12.523-19.049-24.692-19.049a25.407,25.407,0,0,0-24.693,19.049Z" transform="translate(-355.247 -531.957)" fill="#fff"/>
          <path id="路径_701" data-name="路径 701" d="M791.079,569.7a37.615,37.615,0,0,1,37.745-37.745c22.135,0,39.6,19.226,37.392,40.921H802.984c1.059,12.7,11.73,23.016,25.753,23.016a24.668,24.668,0,0,0,22.929-15.168h13.14A37.693,37.693,0,0,1,791.079,569.7Zm62.35-7.408c-2.469-10.583-12.523-19.049-24.692-19.049a25.407,25.407,0,0,0-24.694,19.049Z" transform="translate(-428.462 -531.957)" fill="#fff"/>
        </g>
        <g id="组_208" data-name="组 208" transform="translate(0.102 97.647)">
          <path id="路径_702" data-name="路径 702" d="M106.321,767.167h11.917c.177,7.681,4.768,13.6,13.332,13.6,7.593,0,12.625-4.591,12.625-11.036,0-7.592-6.268-9.711-15.1-12.624-11.565-3.8-19.423-9.358-19.423-21.012,0-10.948,9.183-19.687,21.719-19.687,13.684,0,22.159,9,22.247,22.513l-11.653-.177c-.089-6.622-3.62-11.3-10.594-11.3-6,0-9.8,3.709-9.8,8.829,0,6.268,5.121,8.21,11.83,10.506,11.92,4.061,23.043,7.77,23.043,23.13,0,13.332-10.593,21.984-24.9,21.984C116.385,791.887,106.408,781.646,106.321,767.167Z" transform="translate(-106.321 -716.403)" fill="#fff"/>
          <path id="路径_703" data-name="路径 703" d="M236.381,719.309h12.083v29.544H275.8V719.309h12.171v72.668H275.8V760.318H248.464v31.659H236.381Z" transform="translate(-167.526 -717.771)" fill="#fff"/>
          <path id="路径_704" data-name="路径 704" d="M402.556,792.046A37.7,37.7,0,1,1,440.213,754.3,37.446,37.446,0,0,1,402.556,792.046Zm0-63.319A25.619,25.619,0,1,0,428.13,754.3,25.335,25.335,0,0,0,402.556,728.727Z" transform="translate(-227.964 -716.517)" fill="#fff"/>
          <path id="路径_705" data-name="路径 705" d="M513.561,719.477h12.876L546.1,776.183l19.05-56.706h12.786l-7.5,20.724,11.906,35.982L601.4,719.477h12.876l-25.311,72.579H576.176l-11.641-35.276-12.258,35.276H539.489Z" transform="translate(-297.965 -717.85)" fill="#fff"/>
        </g>
      </g>
      <g id="_上_列_グループ_" data-name="①上２列&lt;グループ&gt;" transform="translate(0)">
        <g id="组_209" data-name="组 209">
          <path id="路径_706" data-name="路径 706" d="M105.367,165.077h14.444c28.889,0,41.573,16.491,41.573,36.246s-12.685,36.511-41.573,36.511H105.367ZM121.2,225.663c18.611,0,27.406-10.582,27.406-24.34s-8.8-24.164-27.406-24.164h-3.148v48.5Z" transform="translate(-105.367 -163.666)" fill="#fff"/>
          <path id="路径_707" data-name="路径 707" d="M231.725,201.627A36.147,36.147,0,0,1,268,165.355c21.272,0,38.054,18.476,35.934,39.324H243.167c1.016,12.2,11.272,22.119,24.746,22.119a23.707,23.707,0,0,0,22.036-14.577h12.628a36.223,36.223,0,0,1-70.852-10.594Zm59.919-7.119c-2.375-10.17-12.035-18.306-23.731-18.306a24.418,24.418,0,0,0-23.73,18.306Z" transform="translate(-164.83 -163.797)" fill="#fff"/>
          <path id="路径_708" data-name="路径 708" d="M390.96,213.12h11.906c.175,7.673,4.761,13.582,13.316,13.582,7.584,0,12.611-4.586,12.611-11.024,0-7.585-6.262-9.7-15.081-12.612-11.553-3.792-19.4-9.347-19.4-20.989,0-10.935,9.173-19.666,21.694-19.666,13.67,0,22.136,8.995,22.224,22.488l-11.641-.176c-.088-6.614-3.615-11.288-10.583-11.288-6,0-9.789,3.7-9.789,8.819,0,6.261,5.116,8.2,11.818,10.494,11.905,4.057,23.016,7.761,23.016,23.106,0,13.317-10.581,21.959-24.869,21.959C401.013,237.814,391.048,227.584,390.96,213.12Z" transform="translate(-239.765 -162.412)" fill="#fff"/>
          <path id="路径_709" data-name="路径 709" d="M513.39,165.41h12.17v72.58H513.39Z" transform="translate(-297.38 -163.823)" fill="#fff"/>
          <path id="路径_710" data-name="路径 710" d="M556.756,200.956a36.621,36.621,0,0,1,36.931-36.846,36.254,36.254,0,0,1,35.38,27.1H615.518a22.741,22.741,0,0,0-21.831-15.273,24.76,24.76,0,0,0-25.281,25.2c0,13.893,10.44,25.2,25.195,25.2a23.6,23.6,0,0,0,22.781-16.568H589.029V199.315h41.246a36.781,36.781,0,1,1-73.518,1.64Z" transform="translate(-317.788 -163.211)" fill="#fff"/>
          <path id="路径_711" data-name="路径 711" d="M717.509,165.332h12.26l29.278,50.709v-50.8h12.17v72.668H759.222L729.679,186.85v51.062h-12.17Z" transform="translate(-393.437 -163.745)" fill="#fff"/>
        </g>
        <g id="组_210" data-name="组 210" transform="translate(0.982 97.756)">
          <path id="路径_712" data-name="路径 712" d="M107.222,350.062h12.171v72.58H107.222Z" transform="translate(-107.222 -348.475)" fill="#fff"/>
          <path id="路径_713" data-name="路径 713" d="M154.363,349.984h12.259L195.9,400.693V349.9h12.171v72.668H196.077L166.533,371.5v51.062H154.363Z" transform="translate(-129.406 -348.397)" fill="#fff"/>
          <path id="路径_714" data-name="路径 714" d="M282.292,349.729h37.922v11.553H294.375V380.6h23.546v10.671H294.375v31.219H282.292Z" transform="translate(-189.609 -348.318)" fill="#fff"/>
          <path id="路径_715" data-name="路径 715" d="M408.154,422.631a37.7,37.7,0,1,1,37.657-37.745A37.447,37.447,0,0,1,408.154,422.631Zm0-63.32a25.619,25.619,0,1,0,25.574,25.575A25.335,25.335,0,0,0,408.154,359.312Z" transform="translate(-231.076 -347.142)" fill="#fff"/>
          <path id="路径_716" data-name="路径 716" d="M561.666,422.564,553.2,404.838a48.65,48.65,0,0,1-7.5.617h-5.467v17.2H528.154V349.9h16.052c22.84,0,31.219,13.316,31.219,27.78,0,9.171-3.527,17.9-11.464,23.018l12.169,21.871Zm-15.608-28.838c11.464,0,17.548-6.526,17.548-16.05,0-9.877-6.26-15.962-17.548-15.962h-5.822v32.012Z" transform="translate(-305.31 -348.397)" fill="#fff"/>
          <path id="路径_717" data-name="路径 717" d="M635.4,352.435h14.985l24.689,56.444,24.348-56.444h14.9V422.5H702.66V371.59L680.354,422.5H669.628l-22.562-51.166V422.5H635.4Z" transform="translate(-355.78 -349.592)" fill="#fff"/>
          <path id="路径_718" data-name="路径 718" d="M846.652,411.971h-35.1l-3.968,10.671h-12.7l28.044-72.58h12.7l27.339,72.58H850.532Zm-3.792-10.318-13.581-37.3-13.846,37.3Z" transform="translate(-430.832 -348.475)" fill="#fff"/>
          <path id="路径_719" data-name="路径 719" d="M928.357,361.282H912.484V349.729h43.831v11.553H940.44v61.2H928.357Z" transform="translate(-486.173 -348.318)" fill="#fff"/>
          <path id="路径_720" data-name="路径 720" d="M1010.6,350.062h12.17v72.58H1010.6Z" transform="translate(-532.344 -348.475)" fill="#fff"/>
          <path id="路径_721" data-name="路径 721" d="M1051.575,384.975a37.9,37.9,0,0,1,37.745-37.746c19.578,0,35.717,15.169,37.57,33.425h-12.258a25.663,25.663,0,1,0-25.311,29.9,25.26,25.26,0,0,0,25.311-21.606h12.258c-1.588,18.431-17.9,33.688-37.57,33.688A37.824,37.824,0,0,1,1051.575,384.975Z" transform="translate(-551.628 -347.142)" fill="#fff"/>
          <path id="路径_722" data-name="路径 722" d="M1202.158,397.772h11.906c.176,7.673,4.762,13.582,13.316,13.582,7.584,0,12.61-4.586,12.61-11.024,0-7.585-6.261-9.7-15.08-12.611-11.553-3.792-19.4-9.347-19.4-20.989,0-10.935,9.173-19.666,21.7-19.666,13.668,0,22.135,8.995,22.222,22.488l-11.641-.176c-.088-6.614-3.615-11.288-10.582-11.288-6,0-9.79,3.7-9.79,8.819,0,6.261,5.115,8.2,11.817,10.495,11.906,4.057,23.017,7.761,23.017,23.106,0,13.317-10.582,21.959-24.869,21.959C1212.211,422.466,1202.246,412.236,1202.158,397.772Z" transform="translate(-622.491 -347.064)" fill="#fff"/>
        </g>
      </g>
    </g>
  </g>
</svg>
