<svg xmlns="http://www.w3.org/2000/svg" width="802.773" height="469.33" viewBox="0 0 802.773 469.33">
  <g id="组_215" data-name="组 215" transform="translate(-105.367 -162.412)">
    <g id="组_197" data-name="组 197" transform="translate(680.973 412.208)" opacity="0.8">
      <g id="组_196" data-name="组 196" transform="translate(0 0)">
        <path id="路径_605" data-name="路径 605" d="M979.007,558.034H960.119a8.529,8.529,0,0,1,2.665-5.933,38.87,38.87,0,0,1,6.85-4.843,29.223,29.223,0,0,0,3.755-2.464,3.934,3.934,0,0,0,1.749-3.3c0-2.75-2.724-3.583-5.017-3.583-3.983,0-5.7,1.778-5.932,5.676h-3.7a10.519,10.519,0,0,1,1.46-5.158c1.893-2.667,4.959-3.612,8.112-3.612,4.157,0,8.741,1.893,8.741,6.707a6.26,6.26,0,0,1-1.319,3.954,18.177,18.177,0,0,1-4.7,3.613,37.775,37.775,0,0,0-6.192,4.1,15.4,15.4,0,0,0-1.519,1.8h13.93Z" transform="translate(-959.89 -533.729)" fill="#1b1111"/>
        <path id="路径_606" data-name="路径 606" d="M1011.265,546.742c0,6.218-2.408,11.922-9.487,11.922-7.107,0-9.487-5.7-9.487-11.922s2.379-11.924,9.487-11.924C1008.857,534.818,1011.265,540.521,1011.265,546.742Zm-15.305,0c0,3.839,1,8.883,5.818,8.883s5.818-5.044,5.818-8.883-1-8.886-5.818-8.886C996.935,537.856,995.96,542.9,995.96,546.742Z" transform="translate(-970.388 -533.729)" fill="#1b1111"/>
        <path id="路径_607" data-name="路径 607" d="M1043.18,558.034h-18.887a8.527,8.527,0,0,1,2.665-5.933,38.857,38.857,0,0,1,6.851-4.843,29.216,29.216,0,0,0,3.755-2.464,3.934,3.934,0,0,0,1.749-3.3c0-2.75-2.724-3.583-5.017-3.583-3.984,0-5.7,1.778-5.933,5.676h-3.695a10.518,10.518,0,0,1,1.46-5.158c1.893-2.667,4.959-3.612,8.112-3.612,4.155,0,8.742,1.893,8.742,6.707a6.259,6.259,0,0,1-1.319,3.954,18.156,18.156,0,0,1-4.7,3.613,37.739,37.739,0,0,0-6.192,4.1,15.442,15.442,0,0,0-1.519,1.8h13.929Z" transform="translate(-980.831 -533.729)" fill="#1b1111"/>
        <path id="路径_608" data-name="路径 608" d="M1064.047,544.764h1.893c2.176,0,4.844-.945,4.844-3.525,0-2.752-2.809-3.326-5.017-3.326-1.72,0-3.5.317-4.529,1.863a4.591,4.591,0,0,0-.66,2.379h-3.724a7.624,7.624,0,0,1,2.464-5.244,10.468,10.468,0,0,1,6.736-2.093c3.782,0,8.4,1.519,8.4,6.018a5.062,5.062,0,0,1-1.319,3.441,5.843,5.843,0,0,1-2.838,1.576,5.987,5.987,0,0,1,3.813,2.494,5.407,5.407,0,0,1,.83,3.038,6.576,6.576,0,0,1-2.263,5.1c-1.95,1.719-4.644,2.179-7.164,2.179-2.953,0-5.762-.66-7.653-3.095a8.909,8.909,0,0,1-1.692-4.988h3.727c.285,3.612,2.12,4.988,5.645,4.988,2.694,0,5.732-.945,5.732-4.157,0-2.924-2.464-4.04-5.014-4.04h-2.208Z" transform="translate(-991.231 -533.729)" fill="#1b1111"/>
        <path id="路径_609" data-name="路径 609" d="M1105.932,543.432h6.3V546.1h-6.3v4.729h9.8v2.694h-9.8v6.162h-3.124v-6.162h-13.243v-2.694h4.844v-7.4h8.4v-3.954H1095.7a30.458,30.458,0,0,1-4.012,5.159,10.548,10.548,0,0,0-2.752-1.576,24.552,24.552,0,0,0,6.506-9.86l2.953.945c.2.059.43.144.43.43,0,.344-.344.374-.8.4-.229.545-.515,1.175-.8,1.776h17.457v2.724h-8.741Zm-8.4,2.667v4.729h5.273V546.1Z" transform="translate(-1001.925 -533.201)" fill="#1b1111"/>
        <path id="路径_610" data-name="路径 610" d="M1157.031,540.22V542.6h-5.388v4.387h-10.461V542.6h-3.9V540.22h3.9v-2.006h-4.358v6.133c0,4.93-.486,11.092-3.238,15.334a7.467,7.467,0,0,0-2.694-1.261c2.552-3.7,3.068-9.286,3.068-13.672v-9h9.6v-2.208l3.238.173c.2,0,.6.086.6.371,0,.259-.315.374-.63.488v1.175h11.206v2.464H1152.3c.056.372-.373.46-.66.487v1.519Zm.745,16.824a13.154,13.154,0,0,0-1.549,2.752,33.759,33.759,0,0,1-9.687-3.009,28.08,28.08,0,0,1-8.053,2.951,5.913,5.913,0,0,0-1.749-2.521,25.9,25.9,0,0,0,6.992-2.093,18.67,18.67,0,0,1-3.9-3.468l1.72-1H1138v-2.408h15.534l1.263,1.461a21.979,21.979,0,0,1-5.476,5.332A26.038,26.038,0,0,0,1157.776,557.044Zm-7.537-6.39h-7.767a18.675,18.675,0,0,0,3.983,3.009A16.7,16.7,0,0,0,1150.239,550.654Zm-1.49-12.44h-4.042c.144.4-.344.487-.63.516v1.49h4.672Zm-4.672,4.385v2.15h4.672V542.6Z" transform="translate(-1015.615 -533.312)" fill="#1b1111"/>
        <path id="路径_611" data-name="路径 611" d="M972.132,604.44a15.23,15.23,0,0,1-6.533,4.04,10.993,10.993,0,0,0-2.208-2.406,12.839,12.839,0,0,0,7.252-4.5c1.376-1.92,1.661-4.356,1.72-6.678H961.185v-2.724h24.132v2.724h-9.946C975.285,598.363,974.6,601.861,972.132,604.44Zm9.056-19.891v2.723H965v-2.723Zm1.893.63a27.651,27.651,0,0,1,2.924,2.809,12.972,12.972,0,0,0-1.434,1.634,19.506,19.506,0,0,0-2.982-2.953Zm4.529-.027a10.481,10.481,0,0,0-1.463,1.517,17.961,17.961,0,0,0-2.951-2.951l1.346-1.49A22.639,22.639,0,0,1,987.61,585.151Z" transform="translate(-960.238 -549.199)" fill="#1b1111"/>
        <path id="路径_612" data-name="路径 612" d="M1019.362,583.189l3.094.2c.259.029.488.059.488.315s-.259.4-.488.488v5.158h5.533v2.894h-5.533v.515c0,.975-.056,2.093-.142,3.1a13.48,13.48,0,0,1-2.178,6.734,15.474,15.474,0,0,1-7.567,5.932,8.945,8.945,0,0,0-2.264-2.379c3.038-1.06,6.133-2.951,7.682-5.874,1.289-2.408,1.375-5.361,1.375-8.026h-7.137v7.222h-3.038v-7.222h-5.7v-2.894h5.7v-5.962l2.894.173c.4.027.574.115.574.342,0,.144-.056.23-.43.459v4.987h7.137Zm6.963,5.131a29.307,29.307,0,0,0-2.921-3.068l1.432-1.289a25.589,25.589,0,0,1,2.867,2.98A5.721,5.721,0,0,0,1026.325,588.32Zm.774-6.306a25.141,25.141,0,0,1,2.924,2.894,7.2,7.2,0,0,0-1.46,1.348,19.114,19.114,0,0,0-2.839-3.038Z" transform="translate(-974.04 -549.129)" fill="#1b1111"/>
        <path id="路径_613" data-name="路径 613" d="M1060.209,608.574h-3.182v-14.33a53.459,53.459,0,0,1-9.772,4.843,11.182,11.182,0,0,0-2.235-2.664,39.763,39.763,0,0,0,20.289-13.644l2.753,2.035a.622.622,0,0,1,.259.459c0,.2-.287.259-.458.259a1.756,1.756,0,0,1-.545-.088,46.941,46.941,0,0,1-7.107,6.593Z" transform="translate(-987.594 -549.379)" fill="#1b1111"/>
        <path id="路径_614" data-name="路径 614" d="M1100.2,590.151a24.1,24.1,0,0,0-1.864,2.58,31.67,31.67,0,0,0-7.909-5.244l1.835-2.58A36.407,36.407,0,0,1,1100.2,590.151Zm12.21-.344a18.061,18.061,0,0,0,1.919,2.638c-5.073,7.968-12.18,12.64-20.978,15.793-.029.43-.115.63-.4.63a.578.578,0,0,1-.456-.344l-1.834-3.067A33.764,33.764,0,0,0,1112.408,589.807Z" transform="translate(-1002.41 -550.073)" fill="#1b1111"/>
        <path id="路径_615" data-name="路径 615" d="M1132.634,588.325c.574.085.833.143.833.43,0,.258-.288.344-.515.371a25.906,25.906,0,0,1-1.608,7.081,9.175,9.175,0,0,0-2.493-1.118,22.4,22.4,0,0,0,1.692-7.108Zm4.959-1.261a24.335,24.335,0,0,1,2.867,3.295,6.538,6.538,0,0,0-1.834,1.6h7.052v-1.576h-5.132v-1.835h5.132v-1.548h-6.451v-2.034h6.451v-2.15l2.95.2c.229.029.63.086.63.344,0,.23-.2.371-.63.515v1.09h6.792v2.034h-6.792v1.548h5.417v1.835h-5.417v1.576h7.4V594h-17.512v-2.005c-.545-.889-1.2-1.778-1.834-2.609v19.777h-2.98v-26.2l3.124.2c.114,0,.6.086.6.372s-.345.459-.745.574v3.612Zm5.732,17.339v4.758h-2.951v-13.67h13.9v10.2c0,2.894-.945,3.353-4.9,3.468a6.993,6.993,0,0,0-1.116-2.694,12.021,12.021,0,0,0,1.747.141c1.263,0,1.377-.227,1.377-1.231V604.4Zm8.054-6.965h-8.054v1.577h8.054Zm0,3.5h-8.054v1.549h8.054Z" transform="translate(-1014.949 -549.393)" fill="#1b1111"/>
        <path id="路径_616" data-name="路径 616" d="M1180.4,601.235h4.5v2.438h-4.5v5.5h-2.721v-5.5H1173v-2.438h4.673v-2.379H1172.8v-2.435h2.694a13.193,13.193,0,0,0-1.289-3.094l1.978-.574h-4.012v-2.436h5.5v-2.293h-4.072v-2.35h4.072v-2.809l2.406.141c.633.03.975.144.975.43,0,.259-.257.344-.66.488v1.749h4.242v2.35H1180.4v2.293h5.073v2.436h-3.781l2.12.459c.256.057.486.115.486.372,0,.288-.342.344-.745.373a21.033,21.033,0,0,1-1.116,2.464h2.694v2.435h-4.73Zm-2.436-5.214-1.663.4h3.556a16.774,16.774,0,0,0,1.4-3.668h-4.585A15.084,15.084,0,0,1,1177.963,596.021Zm20.893,11.262a11.216,11.216,0,0,0-2.264,1.922,26.08,26.08,0,0,1-3.009-2.9,15.952,15.952,0,0,1-2.609,2.809,7.276,7.276,0,0,0-1.833-1.519v1.548H1186.3v-25.48h11.062v3.068c0,1.345,0,2.75-.086,3.839a2.263,2.263,0,0,1-1.031,1.92,8.151,8.151,0,0,1-4.071.774,8.209,8.209,0,0,0-1.09-2.924,8.721,8.721,0,0,0,1.719.173c.489,0,1.519-.029,1.634-.63a34.285,34.285,0,0,0,.059-3.612h-5.361v8.111h7.451l1.348,1.4a26.549,26.549,0,0,1-2.867,8.283A19.265,19.265,0,0,0,1198.856,607.283Zm-4.04-10.317h-5.676v10.117a19.255,19.255,0,0,0,2.753-2.951,18.625,18.625,0,0,1-2.436-5.246l2.12-1.261a16.558,16.558,0,0,0,1.776,4.069A20.937,20.937,0,0,0,1194.817,596.966Z" transform="translate(-1029.087 -549.407)" fill="#1b1111"/>
        <path id="路径_617" data-name="路径 617" d="M1241.147,599.408v2.55h-11.236v4.013a3.658,3.658,0,0,1-.6,2.12,3.426,3.426,0,0,1-2.466.947c-.945.085-1.89.113-2.865.113h-.459a11.033,11.033,0,0,0-1.03-3.009c1.4.115,2.12.143,3.038.143,1.317,0,1.4-.285,1.4-1.174v-3.153h-11.523v-2.55h11.523v-2.293l1.461.229a11.4,11.4,0,0,0,2.638-2.323h-10.549V592.5h14.244l1.148,1.749a34.791,34.791,0,0,1-5.962,4.87v.289ZM1231.716,588a29.411,29.411,0,0,0,3.669-5.131l2.953,1.033c.171.056.372.171.372.371,0,.4-.658.43-.946.43-.946,1.349-1.6,2.236-2.435,3.3h5.417v7.078h-2.9v-4.673h-19.173v4.673h-2.839V588h4.588a25.438,25.438,0,0,0-2.523-3.7l2.407-1.319a18.5,18.5,0,0,1,2.78,4.013,16.513,16.513,0,0,0-1.834,1Zm-4.555-5.647a22.093,22.093,0,0,1,2.808,4.213,13.189,13.189,0,0,0-2.552,1.375,18.418,18.418,0,0,0-2.839-4.358Z" transform="translate(-1043.194 -549.241)" fill="#1b1111"/>
        <path id="路径_618" data-name="路径 618" d="M1268.484,598.857a10.49,10.49,0,0,0-2.035,1.863,35.694,35.694,0,0,1-1.778-3.839v12.237h-2.579V597.911a32.746,32.746,0,0,1-3.209,6.878,9.748,9.748,0,0,0-2.235-1.947,33.447,33.447,0,0,0,5.159-9.717h-4.558v-2.437h4.843v-3.209a34.229,34.229,0,0,1-3.754.889,8.377,8.377,0,0,0-1.548-2.523,25.838,25.838,0,0,0,10.26-2.98l2.065,2.09a.563.563,0,0,1,.2.4.332.332,0,0,1-.371.315,3.8,3.8,0,0,1-.833-.315c-1.145.486-2.291.916-3.439,1.317v4.012h4.386v2.437h-4.271A24.816,24.816,0,0,0,1268.484,598.857Zm14.76-1.432.314,2.58-3.065.6v8.512h-2.753v-8l-10,1.949-.374-2.55,10.375-2.034v-15.62l2.954.2c.286.029.485.057.485.344,0,.315-.429.457-.686.545V597.97Zm-7.882-1.778a26.237,26.237,0,0,0-1.89,2.123,25.472,25.472,0,0,0-4.158-3.728l1.865-2.034A25.422,25.422,0,0,1,1275.361,595.647Zm.919-6.218a10.335,10.335,0,0,0-2.035,2,33.1,33.1,0,0,0-4.417-4.069l1.95-1.893A32.8,32.8,0,0,1,1276.28,589.429Z" transform="translate(-1056.651 -549.407)" fill="#1b1111"/>
        <path id="路径_619" data-name="路径 619" d="M984.743,635.525v2.638H978.61l1.146.6c.315.173.43.259.43.459,0,.286-.286.344-.486.344a1.348,1.348,0,0,1-.344-.03c-.258.488-.544.975-.83,1.434a25.016,25.016,0,0,0,6.592,4.988,8.324,8.324,0,0,0-1.979,2.263,26.692,26.692,0,0,1-6.133-5.073,19.293,19.293,0,0,1-3.727,3.61l1.118.114c.4.029.775.115.775.4,0,.317-.488.46-.745.517v1.519h11.521v2.607H974.426v6.736h-3.1v-6.736h-11.55v-2.607h11.55v-2.723l1.634.144a6.917,6.917,0,0,0-2.149-1.835,14.8,14.8,0,0,0,5.962-6.736h-8.571l1.519.8c.173.086.373.257.373.457,0,.373-.574.373-.833.373-.286.486-.6,1-.916,1.49a14.848,14.848,0,0,0,3.41,2.064,7.178,7.178,0,0,0-1.691,2.464,16.479,16.479,0,0,1-3.182-2.264,30.639,30.639,0,0,1-4.44,4.787,14.349,14.349,0,0,0-2.524-1.808c2.895-1.835,5.446-5.329,6.937-8.368h-5.818v-2.638h10.288v-3.3l3.124.144c.23,0,.745.086.745.43,0,.2-.257.371-.772.6v2.12Z" transform="translate(-959.779 -565.515)" fill="#1b1111"/>
        <path id="路径_620" data-name="路径 620" d="M1028.171,656.16a6.745,6.745,0,0,0-2.005,2.205,26.913,26.913,0,0,1-9.345-5.989v6.3h-2.75v-6.162a35.045,35.045,0,0,1-9.027,5.962,8.353,8.353,0,0,0-2.179-2.091,34.182,34.182,0,0,0,9.858-5.561h-10.259v-2.321h11.607v-1.4h-8.312v-2.179h8.312v-1.376H1003.9v-2.293h6.651a13.831,13.831,0,0,0-1.148-2.122l1.578-.486h-8.512v-2.323h4.785a20.25,20.25,0,0,0-1.661-2.435l2.35-1.4a21.407,21.407,0,0,1,2.064,3.238,6.194,6.194,0,0,0-1.4.6h2.75V632.4l2.723.144c.286.027.574.056.574.371,0,.23-.144.344-.574.489v2.921h2.579v-3.9l2.724.115c.2,0,.6.056.6.342s-.371.459-.6.544v2.894h2.951a9.358,9.358,0,0,0-1.72-.6,15.17,15.17,0,0,0,1.922-3.209l2.865,1.116a.368.368,0,0,1,.259.318c0,.17-.144.342-.43.342a2.639,2.639,0,0,1-.459-.027c-.459.716-.945,1.4-1.433,2.061h5.1v2.323h-6.247a.314.314,0,0,1,.171.286c0,.144-.144.459-.831.43-.286.63-.6,1.29-.918,1.893h6.106v2.293h-9.89v1.376h8.085V647.1h-8.085v1.4h11.639v2.321h-10.09A27.944,27.944,0,0,0,1028.171,656.16Zm-14.99-15.307a12.467,12.467,0,0,0-1.719.4h6.077a19.563,19.563,0,0,0,1.231-2.609h-6.649A12.956,12.956,0,0,1,1013.182,640.853Z" transform="translate(-973.708 -565.571)" fill="#1b1111"/>
        <path id="路径_621" data-name="路径 621" d="M1065.619,650.678a2.579,2.579,0,1,1-2.579-2.579A2.606,2.606,0,0,1,1065.619,650.678Z" transform="translate(-992.633 -570.694)" fill="#1b1111"/>
        <path id="路径_622" data-name="路径 622" d="M1092.364,639.211c.229.056.459.142.459.431,0,.2-.173.315-.545.486v18.429h-2.809V643.337a14.106,14.106,0,0,1-1.749,2.323,5.63,5.63,0,0,0-1.892-2.208,26.5,26.5,0,0,0,5.647-11.436l2.78.745c.229.058.544.173.544.4,0,.286-.257.371-.745.457a45.149,45.149,0,0,1-2.206,5.447Zm21.236,4.011a6.462,6.462,0,0,0-1.663,2.552,27.24,27.24,0,0,1-6.964-3.153,21.553,21.553,0,0,1-6.851,3.124,6.514,6.514,0,0,0-1.546-2.235,20.559,20.559,0,0,0,6.363-2.464,17.979,17.979,0,0,1-2.294-2.379,23.709,23.709,0,0,1-2.12,2.98,5.409,5.409,0,0,0-2.123-1.348v13.959h-2.435V637.463l2.379.171c.371.029.688.058.688.374,0,.256-.4.43-.632.486V640.1a19.962,19.962,0,0,0,4.213-8.053l2.752.6c.144.03.43.144.43.374,0,.345-.516.4-.774.43a6.7,6.7,0,0,1-.344,1h10.06v2.494h-2.434a17.463,17.463,0,0,1-3.327,4.069A20.745,20.745,0,0,0,1113.6,643.222Zm-15.133,15.192a4.31,4.31,0,0,0-1.949-2.322c5.273-.689,11.206-2.924,15.248-6.419l1.864,1.632a.688.688,0,0,1,.285.517c0,.2-.171.286-.371.286a1.057,1.057,0,0,1-.517-.115A33.863,33.863,0,0,1,1098.468,658.414Zm.316-8.741a5.5,5.5,0,0,0-1.547-2.064,20.535,20.535,0,0,0,7.795-3.669l1.607,1.432a.544.544,0,0,1,.2.43c0,.2-.2.26-.373.26a1.514,1.514,0,0,1-.371-.057A29.206,29.206,0,0,1,1098.783,649.673Zm.4,4.184a5.165,5.165,0,0,0-1.923-2.093,28.921,28.921,0,0,0,11.265-5.417l1.92,1.719a.527.527,0,0,1,.173.433c0,.227-.144.286-.373.286-.057,0-.287-.029-.459-.058A42.7,42.7,0,0,1,1099.186,653.856Zm8.109-16.909h-5.13a16.016,16.016,0,0,0,2.723,2.665A11.171,11.171,0,0,0,1107.295,636.947Z" transform="translate(-1000.911 -565.446)" fill="#1b1111"/>
        <path id="路径_623" data-name="路径 623" d="M1153.685,634.568l1.2,1.778a64.561,64.561,0,0,1-10.031,7.164v12.5c0,3.151-2.293,3.354-4.843,3.354-.43,0-.889,0-1.319-.029a9,9,0,0,0-1.06-3.354,22.135,22.135,0,0,0,2.81.23c.8,0,1.289-.086,1.289-1V640.559l2.005.2a24.324,24.324,0,0,0,4.728-3.268h-18.084v-2.924Z" transform="translate(-1015.45 -566.278)" fill="#1b1111"/>
        <path id="路径_624" data-name="路径 624" d="M1179.025,636.069v-3.554l2.782.142c.23,0,.66.029.66.373,0,.23-.259.345-.689.515v2.524h5.532v2.694h-5.532v2.75h6.333v2.694h-6.333v2.122h5.3v8.024c0,2.323-1.892,2.467-3.7,2.494a6.13,6.13,0,0,0-1.29-2.924,7.655,7.655,0,0,0,1.434.174c.831,0,.831-.459.831-1.148v-3.9h-2.579v9.657h-2.753v-9.657h-2.406v8.023h-2.867V646.329h5.274v-2.122h-6.793v-2.694h6.793v-2.75h-3.5c-.315.659-.63,1.289-1,1.978a9.464,9.464,0,0,0-2.609-.947,19.756,19.756,0,0,0,2.81-6.363l2.637.574c.23.057.545.171.545.43,0,.315-.545.4-.8.43-.115.4-.257.8-.4,1.2Zm13.07-.23c.259.029.688.086.688.4,0,.2-.259.315-.688.489v15.791h-2.924V635.61Zm5.446-3.3c.315.027.716.086.716.4,0,.23-.315.4-.716.545v21.293c0,3.412-1.463,3.957-4.988,3.957h-.515a8.745,8.745,0,0,0-1.148-3.009,17.312,17.312,0,0,0,2.178.171c1.349,0,1.55-.315,1.55-1.634V632.4Z" transform="translate(-1029.002 -565.571)" fill="#1b1111"/>
        <path id="路径_625" data-name="路径 625" d="M1221.531,639.64c.144.03.544.144.544.4,0,.286-.314.43-.8.515v17.971h-3.009V643.739c-.572.745-1.2,1.489-1.835,2.178a8.331,8.331,0,0,0-2.55-1.922,28.575,28.575,0,0,0,7.308-11.892l3.124.915c.2.059.4.144.4.374,0,.315-.288.371-.833.371a41.18,41.18,0,0,1-2.809,5.791Zm2.924,5.647a8.472,8.472,0,0,0-2.724-1.634,25.967,25.967,0,0,0,6.736-11.523l3.181.888a.488.488,0,0,1,.373.43c0,.259-.314.345-.859.374q-.56,1.462-1.2,2.924h10.921v2.78h-8.112v3.725h7.192v2.694h-7.192v3.527h7.823v2.78h-7.823v6.277h-3.095v-19h-1.119A33.905,33.905,0,0,1,1224.454,645.287Z" transform="translate(-1042.694 -565.474)" fill="#1b1111"/>
        <path id="路径_626" data-name="路径 626" d="M1282.21,633.589v6.68H1262.6v4.814c0,4.443-.716,9.917-3.065,13.756a7.883,7.883,0,0,0-2.638-1.316c2.694-4.243,2.808-8.371,2.808-13.214v-10.72Zm-.23,17.227a.531.531,0,0,1,.257.4.324.324,0,0,1-.344.315,2.669,2.669,0,0,1-.457-.056,30.257,30.257,0,0,1-2.923,2.436,15.176,15.176,0,0,0,5.388,2.723,6.47,6.47,0,0,0-1.779,2.435,18.62,18.62,0,0,1-10.031-9.172h-3.151v5.046c1.69-.288,3.38-.633,5.073-1.062a10.6,10.6,0,0,0-.432,2.667c-3.21.745-6.419,1.432-9.687,1.92-.115.286-.23.545-.572.545-.288,0-.373-.173-.429-.43l-.659-2.609c1.29-.144,2.665-.344,3.869-.544V649.9h-3.268V647.4h4.242v-2.52h-3.238v-2.265h3.238v-1.893l2.75.115c.23,0,.861.059.861.4,0,.2-.257.317-.831.432v.945h4.872v-1.893l2.78.144c.229,0,.86.056.86.371,0,.259-.315.4-.889.518v.86h4.787v2.265h-4.787v2.52h5.848V649.9h-2.409Zm-19.376-12.84h16.709v-2.15H1262.6Zm7.252,6.908v2.52h4.872v-2.52Zm5.1,5.014a12.186,12.186,0,0,0,1.72,2.323,24.151,24.151,0,0,0,2.494-2.323Z" transform="translate(-1056.734 -565.959)" fill="#1b1111"/>
      </g>
    </g>
    <g id="_グループ_" data-name="①&lt;グループ&gt;" transform="translate(105.367 162.412)" opacity="0.85">
      <g id="_下_列_グループ_" data-name="①下２列&lt;グループ&gt;" transform="translate(0.513 248.958)">
        <g id="组_207" data-name="组 207">
          <path id="路径_696" data-name="路径 696" d="M106.129,534.457h17.507c35.014,0,50.39,20.985,50.39,46.124s-15.376,46.461-50.39,46.461H106.129Zm19.192,77.1c22.556,0,33.217-13.466,33.217-30.974s-10.662-30.75-33.217-30.75H121.5v61.723Z" transform="translate(-106.129 -532.773)" fill="#1b1311"/>
          <path id="路径_697" data-name="路径 697" d="M216.9,579.989a47.867,47.867,0,0,1,48.033-48.032c28.167,0,50.388,24.466,47.583,52.073H232.05c1.348,16.159,14.927,29.289,32.771,29.289A31.391,31.391,0,0,0,294,594.018H310.72A47.966,47.966,0,0,1,216.9,579.989Zm79.343-9.427c-3.143-13.467-15.936-24.241-31.421-24.241A32.331,32.331,0,0,0,233.4,570.563Z" transform="translate(-142.275 -531.957)" fill="#1b1311"/>
          <path id="路径_698" data-name="路径 698" d="M370.812,579.878a47.628,47.628,0,0,1,48.033-47.921A47.151,47.151,0,0,1,464.857,567.2H447.238c-3.816-11.559-15.039-19.863-28.393-19.863-19.19,0-32.883,14.7-32.883,32.769s13.579,32.769,32.771,32.769c13.914,0,25.922-8.978,29.627-21.547H412.785V577.745h53.642a47.3,47.3,0,0,1-47.583,50.164C390.9,627.909,370.812,605.577,370.812,579.878Z" transform="translate(-192.499 -531.957)" fill="#1b1311"/>
          <path id="路径_699" data-name="路径 699" d="M571.7,627.1,560.93,604.539a61.892,61.892,0,0,1-9.54.785h-6.956v21.884H529.059V534.624h20.426c29.064,0,39.726,16.945,39.726,35.35,0,11.671-4.489,22.781-14.588,29.291L590.108,627.1Zm-19.862-36.7c14.588,0,22.333-8.3,22.333-20.424,0-12.569-7.968-20.313-22.333-20.313h-7.407V590.4Z" transform="translate(-244.137 -532.827)" fill="#1b1311"/>
          <path id="路径_700" data-name="路径 700" d="M635.5,579.989a47.867,47.867,0,0,1,48.033-48.032c28.167,0,50.388,24.466,47.582,52.073H650.649c1.348,16.159,14.927,29.289,32.771,29.289a31.391,31.391,0,0,0,29.178-19.3H729.32A47.966,47.966,0,0,1,635.5,579.989Zm79.343-9.427c-3.143-13.467-15.936-24.241-31.421-24.241A32.331,32.331,0,0,0,652,570.563Z" transform="translate(-278.869 -531.957)" fill="#1b1311"/>
          <path id="路径_701" data-name="路径 701" d="M791.079,579.989a47.866,47.866,0,0,1,48.033-48.032c28.167,0,50.388,24.466,47.583,52.073H806.229c1.348,16.159,14.927,29.289,32.772,29.289a31.391,31.391,0,0,0,29.177-19.3H884.9a47.966,47.966,0,0,1-93.82-14.028Zm79.342-9.427C867.279,557.1,854.485,546.322,839,546.322a32.331,32.331,0,0,0-31.423,24.241Z" transform="translate(-329.637 -531.957)" fill="#1b1311"/>
        </g>
        <g id="组_208" data-name="组 208" transform="translate(0.129 124.259)">
          <path id="路径_702" data-name="路径 702" d="M106.321,781h15.165c.226,9.774,6.068,17.3,16.965,17.3,9.663,0,16.065-5.842,16.065-14.044,0-9.661-7.976-12.358-19.21-16.065-14.717-4.832-24.717-11.909-24.717-26.739,0-13.931,11.685-25.053,27.638-25.053,17.413,0,28.2,11.459,28.31,28.648l-14.829-.224c-.113-8.427-4.606-14.38-13.481-14.38-7.64,0-12.472,4.719-12.472,11.235,0,7.976,6.517,10.448,15.054,13.369,15.168,5.168,29.323,9.887,29.323,29.434,0,16.965-13.481,27.976-31.682,27.976C119.128,812.459,106.432,799.427,106.321,781Z" transform="translate(-106.321 -716.403)" fill="#1b1311"/>
          <path id="路径_703" data-name="路径 703" d="M236.381,719.309h15.376v37.6h34.789v-37.6h15.487v92.473H286.546V771.494H251.757v40.288H236.381Z" transform="translate(-148.761 -717.351)" fill="#1b1311"/>
          <path id="路径_704" data-name="路径 704" d="M412.843,812.6c-27.944,0-48.033-22.332-48.033-48.031a47.627,47.627,0,0,1,48.033-47.919c27.832,0,47.919,22.332,47.919,47.919C460.763,790.264,440.675,812.6,412.843,812.6Zm0-80.576a32.6,32.6,0,1,0,32.544,32.545A32.239,32.239,0,0,0,412.843,732.02Z" transform="translate(-190.669 -716.482)" fill="#1b1311"/>
          <path id="路径_705" data-name="路径 705" d="M513.561,719.477h16.385l25.026,72.159,24.241-72.159h16.271l-9.539,26.372,15.15,45.788,24.241-72.159H641.72l-32.209,92.36H593.241l-14.813-44.889-15.6,44.889H546.555Z" transform="translate(-239.209 -717.406)" fill="#1b1311"/>
        </g>
      </g>
      <g id="_上_列_グループ_" data-name="①上２列&lt;グループ&gt;" transform="translate(0)">
        <g id="组_209" data-name="组 209">
          <path id="路径_706" data-name="路径 706" d="M105.367,165.077h18.381c36.762,0,52.9,20.985,52.9,46.124s-16.142,46.461-52.9,46.461H105.367Zm20.148,77.1c23.683,0,34.875-13.466,34.875-30.973s-11.193-30.749-34.875-30.749h-4.006v61.723Z" transform="translate(-105.367 -163.282)" fill="#1b1311"/>
          <path id="路径_707" data-name="路径 707" d="M231.725,211.513a46,46,0,0,1,46.158-46.158c27.069,0,48.424,23.511,45.727,50.041H246.285c1.293,15.53,14.344,28.147,31.49,28.147a30.168,30.168,0,0,0,28.042-18.549h16.069a46.095,46.095,0,0,1-90.161-13.481Zm76.249-9.059c-3.022-12.941-15.315-23.295-30.2-23.295a31.073,31.073,0,0,0-30.2,23.295Z" transform="translate(-146.599 -163.372)" fill="#1b1311"/>
          <path id="路径_708" data-name="路径 708" d="M390.96,226.94h15.151c.223,9.764,6.059,17.283,16.945,17.283,9.651,0,16.048-5.836,16.048-14.028,0-9.652-7.969-12.345-19.191-16.049-14.7-4.825-24.689-11.895-24.689-26.709,0-13.915,11.673-25.025,27.607-25.025,17.4,0,28.169,11.446,28.281,28.616L436.3,190.8c-.112-8.416-4.6-14.364-13.467-14.364-7.631,0-12.456,4.714-12.456,11.222,0,7.968,6.51,10.437,15.039,13.355,15.15,5.162,29.289,9.876,29.289,29.4,0,16.946-13.465,27.944-31.646,27.944C403.753,258.363,391.072,245.346,390.96,226.94Z" transform="translate(-198.56 -162.412)" fill="#1b1311"/>
          <path id="路径_709" data-name="路径 709" d="M513.39,165.41h15.487v92.36H513.39Z" transform="translate(-238.51 -163.39)" fill="#1b1311"/>
          <path id="路径_710" data-name="路径 710" d="M556.756,211a46.6,46.6,0,0,1,47-46.887,46.135,46.135,0,0,1,45.022,34.479H631.533c-3.732-11.31-14.713-19.436-27.781-19.436-18.777,0-32.171,14.385-32.171,32.063s13.285,32.064,32.061,32.064c13.617,0,25.366-8.785,28.99-21.083H597.824V208.91H650.31a46.278,46.278,0,0,1-46.558,49.084C576.412,257.994,556.756,236.143,556.756,211Z" transform="translate(-252.661 -162.966)" fill="#1b1311"/>
          <path id="路径_711" data-name="路径 711" d="M717.509,165.356h15.6l37.258,64.529V165.244h15.487v92.472H770.591L733,192.738v64.978H717.509Z" transform="translate(-305.117 -163.336)" fill="#1b1311"/>
        </g>
        <g id="组_210" data-name="组 210" transform="translate(1.25 124.398)">
          <path id="路径_712" data-name="路径 712" d="M107.222,350.062h15.487v92.36H107.222Z" transform="translate(-107.222 -348.042)" fill="#1b1311"/>
          <path id="路径_713" data-name="路径 713" d="M154.363,350.008h15.6l37.258,64.529V349.9h15.487v92.472H207.445L169.85,377.39v64.978H154.363Z" transform="translate(-122.605 -347.988)" fill="#1b1311"/>
          <path id="路径_714" data-name="路径 714" d="M282.292,349.729h48.256v14.7H297.668v24.577h29.964v13.579H297.668v39.727H282.292Z" transform="translate(-164.35 -347.934)" fill="#1b1311"/>
          <path id="路径_715" data-name="路径 715" d="M418.441,443.181c-27.944,0-48.033-22.332-48.033-48.031a47.628,47.628,0,0,1,48.033-47.921c27.832,0,47.919,22.333,47.919,47.921C466.36,420.849,446.273,443.181,418.441,443.181Zm0-80.576a32.6,32.6,0,1,0,32.544,32.545A32.24,32.24,0,0,0,418.441,362.6Z" transform="translate(-193.103 -347.118)" fill="#1b1311"/>
          <path id="路径_716" data-name="路径 716" d="M570.8,442.368l-10.773-22.557a61.91,61.91,0,0,1-9.539.786h-6.958v21.884H528.154V349.9H548.58c29.065,0,39.727,16.945,39.727,35.35,0,11.671-4.489,22.781-14.588,29.291L589.2,442.368Zm-19.862-36.7c14.588,0,22.331-8.3,22.331-20.424,0-12.569-7.966-20.312-22.331-20.312h-7.408v40.737Z" transform="translate(-244.578 -347.988)" fill="#1b1311"/>
          <path id="路径_717" data-name="路径 717" d="M635.4,352.435h19.069l31.417,71.827,30.984-71.827h18.959V441.6H720.989V376.811L692.605,441.6H678.956l-28.71-65.11V441.6H635.4Z" transform="translate(-279.574 -348.817)" fill="#1b1311"/>
          <path id="路径_718" data-name="路径 718" d="M860.76,428.843H816.1l-5.049,13.58H794.885l35.687-92.36h16.161l34.789,92.36H865.7Zm-4.825-13.13-17.282-47.471-17.619,47.471Z" transform="translate(-331.615 -348.042)" fill="#1b1311"/>
          <path id="路径_719" data-name="路径 719" d="M932.683,364.431h-20.2v-14.7H968.26v14.7h-20.2v77.883H932.683Z" transform="translate(-369.99 -347.934)" fill="#1b1311"/>
          <path id="路径_720" data-name="路径 720" d="M1010.6,350.062h15.487v92.36H1010.6Z" transform="translate(-402.005 -348.042)" fill="#1b1311"/>
          <path id="路径_721" data-name="路径 721" d="M1051.575,395.262c0-25.7,20.987-48.033,48.032-48.033,24.913,0,45.451,19.3,47.808,42.534h-15.6c-2.246-14.926-15.6-27.158-32.209-27.158a32.6,32.6,0,1,0,0,65.2,32.144,32.144,0,0,0,32.209-27.494h15.6c-2.021,23.455-22.781,42.869-47.808,42.869A48.133,48.133,0,0,1,1051.575,395.262Z" transform="translate(-415.377 -347.118)" fill="#1b1311"/>
          <path id="路径_722" data-name="路径 722" d="M1202.158,411.592h15.15c.224,9.764,6.06,17.283,16.945,17.283,9.651,0,16.047-5.835,16.047-14.028,0-9.652-7.968-12.345-19.19-16.049-14.7-4.825-24.689-11.895-24.689-26.709,0-13.915,11.673-25.025,27.609-25.025,17.393,0,28.167,11.446,28.278,28.616l-14.813-.224c-.112-8.417-4.6-14.364-13.465-14.364-7.634,0-12.458,4.714-12.458,11.222,0,7.968,6.51,10.437,15.038,13.355,15.151,5.162,29.29,9.876,29.29,29.4,0,16.946-13.466,27.944-31.646,27.944C1214.951,443.015,1202.27,430,1202.158,411.592Z" transform="translate(-464.514 -347.064)" fill="#1b1311"/>
        </g>
      </g>
    </g>
  </g>
</svg>
